<?xml version="1.0" encoding="UTF-8" standalone="no"?>
<svg
   data-v-0dd9719b=""
   version="1.0"
   width="300"
   height="128.588"
   viewBox="0 0 300 128.588"
   preserveAspectRatio="xMidYMid"
   color-interpolation-filters="sRGB"
   id="svg16"
   xmlns="http://www.w3.org/2000/svg"
   xmlns:svg="http://www.w3.org/2000/svg">
  <g
     data-v-0dd9719b=""
     fill="#333333"
     class="iconlinesvg-g iconlinesvg"
     id="g16"
     transform="matrix(1.6325223,0,0,1.6325223,17.050346,17.372051)">
    <g
       class="tp-name"
       id="g15"
       transform="translate(-2.4818143)">
      <g
         id="g8">
        <g
           id="g7">
          <g
             class="imagesvg"
             id="g6">
            <g
               id="g5">
              <rect
                 fill="#333333"
                 fill-opacity="0"
                 stroke-width="2"
                 x="0"
                 y="0"
                 width="47.470798"
                 height="55.848"
                 class="image-rect"
                 id="rect2" />
              <svg
                 x="0"
                 y="0"
                 version="1.1"
                 id="svg5"
                 height="55.848"
                 width="47.470798"
                 filtersec="colorsb630366517"
                 class="image-svg-svg primary"
                 style="overflow:visible">
                <svg
                   viewBox="0.0045030384 0.0038194316 85 100"
                   version="1.1"
                   id="svg4"
                   width="100%"
                   height="100%">
                  <path
                     d="m 85,90 a 10,10 0 0 0 -2.24,-6.3 l -65,-80 A 10,10 0 0 0 10,0 10,10 0 0 0 0,10 10,10 0 0 0 2.24,16.31 l 65,80 A 10,10 0 0 0 75,100 10,10 0 0 0 85,90 Z"
                     fill="#df5bd3"
                     id="path2" />
                  <path
                     d="M 85,42.43 V 10 A 10,10 0 0 0 75,0 10,10 0 0 0 65,10 v 32.43 a 10,10 0 0 0 2.24,6.3 10,10 0 0 0 17.76,-6.3 z"
                     fill="#7e5bf6"
                     id="path3" />
                  <path
                     d="M 0,57.57 V 90 A 10,10 0 0 0 10,100 10,10 0 0 0 20,90 V 57.57 A 10,10 0 0 0 17.76,51.27 10,10 0 0 0 0,57.57 Z"
                     fill="#df5bd3"
                     id="path4" />
                </svg>
              </svg>
            </g>
          </g>
        </g>
      </g>
      <g
         transform="translate(51,4.589)"
         id="g10">
        <g
           data-gra="path-name"
           fill="#333333"
           id="g9">
          <path
             d="m 29.38,-8.71 q 1.1,0 1.79,0.84 0.68,0.85 0.68,2.28 v 0 q 0,2.01 -2.4,3.38 v 0 q -2.22,1.23 -5.01,1.98 -2.8,0.75 -5.33,0.75 v 0 Q 11.44,0.52 6.96,-3.9 2.47,-8.32 2.47,-15.99 v 0 q 0,-4.88 1.95,-8.65 1.95,-3.77 5.49,-5.84 3.55,-2.08 8.03,-2.08 v 0 q 4.29,0 7.47,1.88 3.19,1.88 4.95,5.33 1.75,3.44 1.75,8.12 v 0 q 0,2.8 -2.47,2.8 v 0 H 10.46 q 0.4,4.48 2.54,6.6 2.15,2.11 6.24,2.11 v 0 q 2.08,0 3.67,-0.52 1.6,-0.52 3.61,-1.43 v 0 q 1.95,-1.04 2.86,-1.04 z M 18.14,-26.85 q -3.32,0 -5.3,2.08 -1.98,2.08 -2.38,5.98 v 0 h 14.7 q -0.13,-3.96 -1.95,-6.01 -1.82,-2.05 -5.07,-2.05 z"
             transform="translate(-2.47,46.15)"
             id="path8" />
        </g>
      </g>
      <g
         transform="translate(84,4.589)"
         id="g12">
        <g
           data-gra="path-name"
           fill="#333333"
           id="g11">
          <path
             d="m 40.56,-5.98 q 1.04,1.23 1.04,2.47 v 0 q 0,1.56 -1.2,2.73 -1.2,1.17 -2.77,1.17 v 0 q -1.62,0 -2.86,-1.43 v 0 L 21.58,-17.42 8.32,-1.04 Q 7.15,0.33 5.53,0.33 v 0 q -1.56,0 -2.77,-1.14 -1.2,-1.14 -1.2,-2.7 v 0 q 0,-1.3 0.98,-2.47 v 0 L 16.71,-23.27 3.12,-39.84 q -0.97,-1.04 -0.97,-2.48 v 0 q 0,-1.56 1.16,-2.69 1.18,-1.14 2.73,-1.14 v 0 q 1.63,0 2.87,1.43 v 0 l 12.67,15.67 12.68,-15.67 q 1.17,-1.43 2.79,-1.43 v 0 q 1.56,0 2.76,1.14 1.21,1.13 1.21,2.69 v 0 q 0,1.44 -0.98,2.48 v 0 l -13.58,16.57 z"
             transform="translate(-1.56,46.15)"
             id="path10" />
        </g>
      </g>
      <g
         transform="translate(128,4.589)"
         id="g14">
        <g
           data-gra="path-name"
           fill="#333333"
           id="g13">
          <path
             d="m 19.96,0.33 q -1.96,0 -3.09,-1.14 -1.14,-1.14 -1.14,-3.02 v 0 -35.11 H 3.9 q -3.9,0 -3.9,-3.44 v 0 q 0,-3.45 3.9,-3.45 v 0 h 32.05 q 3.89,0 3.89,3.45 v 0 q 0,3.44 -3.89,3.44 v 0 H 24.12 v 35.11 q 0,1.88 -1.14,3.02 -1.14,1.14 -3.02,1.14 z"
             transform="translate(0,46.15)"
             id="path12" />
        </g>
      </g>
    </g>
  </g>
  <defs
     v-gra="od"
     id="defs16" />
</svg>
