<svg data-v-0dd9719b="" version="1.0" xmlns="http://www.w3.org/2000/svg" xmlns:xlink="http://www.w3.org/1999/xlink" width="100%" height="100%" viewBox="0 0 340.000000 250.000000" preserveAspectRatio="xMidYMid meet" color-interpolation-filters="sRGB" style="margin: auto;"> <rect data-v-0dd9719b="" x="0" y="0" width="100%" height="100%" fill="#feffff" fill-opacity="1" class="background"></rect> <g data-v-0dd9719b="" fill="#333" class="iconlinesvg-g iconlinesvg" transform="translate(86.0865666261287,97.07877198962127)"><g class="tp-name"><g transform="translate(0, 0)"><g><g class="imagesvg"><g><rect fill="#333" fill-opacity="0" stroke-width="2" x="0" y="0" width="47.4708" height="55.848" class="image-rect"></rect> <svg x="0" y="0" width="47.4708" height="55.848" filtersec="colorsb630366517" class="image-svg-svg primary" style="overflow: visible;"><svg xmlns="http://www.w3.org/2000/svg" viewBox="0.0045030384185898754 0.0038194315815266566 85 100"><path d="M85 90a10 10 0 0 0-2.24-6.3l-65-80A10 10 0 0 0 10 0 10 10 0 0 0 0 10a10 10 0 0 0 2.24 6.31l65 80A10 10 0 0 0 75 100a10 10 0 0 0 10-10z" fill="#df5bd3"></path><path d="M85 42.43V10A10 10 0 0 0 75 0a10 10 0 0 0-10 10v32.43a10 10 0 0 0 2.24 6.3A10 10 0 0 0 85 42.43z" fill="#7e5bf6"></path><path d="M0 57.57V90a10 10 0 0 0 10 10 10 10 0 0 0 10-10V57.57a10 10 0 0 0-2.24-6.3A10 10 0 0 0 0 57.57z" fill="#df5bd3"></path></svg></svg> <!----></g></g></g></g><g transform="translate(51, 4.588999999999999)"><g data-gra="path-name" fill="#333" transform="scale(1)"><path d="M29.38-8.71Q30.48-8.71 31.17-7.87Q31.85-7.02 31.85-5.59L31.85-5.59Q31.85-3.58 29.45-2.21L29.45-2.21Q27.23-0.98 24.44-0.23Q21.64 0.52 19.11 0.52L19.11 0.52Q11.44 0.52 6.96-3.90Q2.47-8.32 2.47-15.99L2.47-15.99Q2.47-20.87 4.42-24.64Q6.37-28.41 9.91-30.48Q13.46-32.56 17.94-32.56L17.94-32.56Q22.23-32.56 25.41-30.68Q28.60-28.80 30.36-25.35Q32.11-21.91 32.11-17.23L32.11-17.23Q32.11-14.43 29.64-14.43L29.64-14.43L10.46-14.43Q10.86-9.95 13-7.83Q15.15-5.72 19.24-5.72L19.24-5.72Q21.32-5.72 22.91-6.24Q24.51-6.76 26.52-7.67L26.52-7.67Q28.47-8.71 29.38-8.71L29.38-8.71ZM18.14-26.85Q14.82-26.85 12.84-24.77Q10.86-22.69 10.46-18.79L10.46-18.79L25.16-18.79Q25.03-22.75 23.21-24.80Q21.39-26.85 18.14-26.85L18.14-26.85Z" transform="translate(-2.47, 46.15)"></path></g></g><g transform="translate(84, 4.588999999999999)"><g data-gra="path-name" fill="#333" transform="scale(1)"><path d="M40.56-5.98Q41.60-4.75 41.60-3.51L41.60-3.51Q41.60-1.95 40.40-0.78Q39.20 0.39 37.63 0.39L37.63 0.39Q36.01 0.39 34.77-1.04L34.77-1.04L21.58-17.42L8.32-1.04Q7.15 0.33 5.53 0.33L5.53 0.33Q3.97 0.33 2.76-0.81Q1.56-1.95 1.56-3.51L1.56-3.51Q1.56-4.81 2.54-5.98L2.54-5.98L16.71-23.27L3.12-39.84Q2.15-40.88 2.15-42.32L2.15-42.32Q2.15-43.88 3.31-45.01Q4.49-46.15 6.04-46.15L6.04-46.15Q7.67-46.15 8.91-44.72L8.91-44.72L21.58-29.05L34.26-44.72Q35.43-46.15 37.05-46.15L37.05-46.15Q38.61-46.15 39.81-45.01Q41.02-43.88 41.02-42.32L41.02-42.32Q41.02-40.88 40.04-39.84L40.04-39.84L26.46-23.27L40.56-5.98Z" transform="translate(-1.56, 46.15)"></path></g></g><g transform="translate(128, 4.588999999999999)"><g data-gra="path-name" fill="#333" transform="scale(1)"><path d="M19.96 0.33Q18.00 0.33 16.87-0.81Q15.73-1.95 15.73-3.83L15.73-3.83L15.73-38.94L3.90-38.94Q0-38.94 0-42.38L0-42.38Q0-45.83 3.90-45.83L3.90-45.83L35.95-45.83Q39.84-45.83 39.84-42.38L39.84-42.38Q39.84-38.94 35.95-38.94L35.95-38.94L24.12-38.94L24.12-3.83Q24.12-1.95 22.98-0.81Q21.84 0.33 19.96 0.33L19.96 0.33Z" transform="translate(0, 46.15)"></path></g></g></g> <!----></g><defs v-gra="od"></defs></svg>
