<?xml version="1.0" encoding="UTF-8" standalone="no"?>
<svg
   id="svg4458"
   version="1.1"
   viewBox="0 0 37.345053 37.663967"
   height="37.663967mm"
   width="37.345055mm"
   xmlns="http://www.w3.org/2000/svg"
   xmlns:svg="http://www.w3.org/2000/svg">
  <defs
     id="defs4452" />
  <g
     transform="translate(13.452402,-84.644208)"
     id="layer1">
    <g
       transform="matrix(0.35277777,0,0,-0.35277777,17.912364,84.644208)"
       id="g3989">
      <path
         id="path3991"
         style="fill:#1677ff;fill-opacity:1;fill-rule:nonzero;stroke:none"
         d="m 0,0 h -71.95 c -9.37,0 -16.958,-7.655 -16.958,-17.104 v -72.559 c 0,-9.443 7.588,-17.101 16.958,-17.101 H 0 c 9.368,0 16.952,7.658 16.952,17.101 v 72.559 C 16.952,-7.655 9.368,0 0,0" />
    </g>
    <g
       transform="matrix(0.35277777,0,0,-0.35277777,-3.3614425,113.60801)"
       id="g3993">
      <path
         id="path3995"
         style="fill:#ffffff;fill-opacity:1;fill-rule:nonzero;stroke:none"
         d="m 0,0 c -16.469,0 -21.338,13.083 -13.199,20.241 2.716,2.419 7.679,3.6 10.325,3.865 9.783,0.975 18.839,-2.789 29.526,-8.05 C 19.14,6.173 9.572,0 0,0 m 58.554,15.064 c -4.236,1.431 -9.92,3.619 -16.251,5.929 3.802,6.666 6.839,14.257 8.835,22.507 H 30.271 v 7.58 h 25.562 v 4.231 H 30.271 V 67.947 H 19.839 c -1.83,0 -1.83,-1.822 -1.83,-1.822 V 55.311 H -7.844 V 51.08 H 18.009 V 43.5 H -3.336 V 39.27 H 38.062 C 36.547,34.006 34.513,29.064 32.099,24.574 18.666,29.044 4.332,32.667 -4.673,30.437 -10.432,29.006 -14.141,26.452 -16.32,23.776 -26.321,11.504 -19.148,-7.136 1.973,-7.136 c 12.488,0 24.518,7.022 33.842,18.594 C 49.722,4.716 77.256,-6.86 77.256,-6.86 V 9.638 c 0,0 -3.458,0.278 -18.702,5.426" />
    </g>
  </g>
</svg>
